<svg xmlns="http://www.w3.org/2000/svg" id="Layer_1" data-name="Layer 1" viewBox="0 0 476.59 119.06"><defs><style>      .cls-1 {        fill: #f5821f;      }      .cls-2 {        fill: #00a3e6;      }      .cls-3 {        fill: #ee287e;      }      .cls-4 {        fill: #ffd001;      }      .cls-5 {        fill: #00a651;      }      .cls-6 {        fill: #232020;      }    </style></defs><path class="cls-6" d="M87.19,75.28c0-24.08-19.52-43.59-43.59-43.59S0,51.21,0,75.28s19.52,43.59,43.59,43.59,43.59-19.52,43.59-43.59Zm-43.59,22.71c-12.17,0-22.04-9.87-22.04-22.04s9.87-22.04,22.04-22.04,22.04,9.87,22.04,22.04-9.87,22.04-22.04,22.04Z"></path><rect class="cls-2" x="65.63" y="75.95" width="21.55" height="42.92"></rect><path class="cls-6" d="M141.15,31.69c-24.08,0-43.59,19.52-43.59,43.59s19.52,43.59,43.59,43.59,43.59-19.52,43.59-43.59-19.52-43.59-43.59-43.59Zm0,66.3c-12.17,0-22.04-9.87-22.04-22.04s9.87-22.04,22.04-22.04,22.04,9.87,22.04,22.04-9.87,22.04-22.04,22.04Z"></path><rect class="cls-4" x="163.19" width="21.55" height="76.04"></rect><path class="cls-6" d="M237.87,31.69c-24.08,0-43.59,19.52-43.59,43.59s19.52,43.59,43.59,43.59,43.59-19.52,43.59-43.59-19.52-43.59-43.59-43.59Zm0,66.3c-12.17,0-22.04-9.87-22.04-22.04s9.87-22.04,22.04-22.04,22.04,9.87,22.04,22.04-9.87,22.04-22.04,22.04Z"></path><rect class="cls-5" x="259.91" y="75.95" width="21.55" height="42.92"></rect><path class="cls-6" d="M335.25,31.75c-24.08,0-43.59,19.52-43.59,43.59s19.52,43.59,43.59,43.59,43.59-19.52,43.59-43.59-19.52-43.59-43.59-43.59Zm0,66.3c-12.17,0-22.04-9.87-22.04-22.04s9.87-22.04,22.04-22.04,22.04,9.87,22.04,22.04-9.87,22.04-22.04,22.04Z"></path><rect class="cls-1" x="357.29" y="76.01" width="21.55" height="42.92"></rect><rect class="cls-6" x="455.03" y="74.55" width="21.55" height="44.51"></rect><path class="cls-6" d="M432.99,53.91c12.17,0,22.04,9.87,22.04,22.04h21.54c0-.22,.02-.45,.02-.67,0-24.08-19.52-43.59-43.59-43.59-8.04,0-15.57,2.19-22.04,5.99v38.28c0-12.17,9.87-22.04,22.04-22.04Z"></path><path class="cls-3" d="M410.95,37.68v-5.99h-21.55v43.59c0-16.03,8.66-30.03,21.55-37.61Z"></path><path class="cls-3" d="M410.95,37.68c-12.89,7.57-21.55,21.57-21.55,37.61,0,.22,.01,.45,.02,.67h21.54V37.68Z"></path><rect class="cls-3" x="389.38" y="31.67" width="21.55" height="44.32"></rect></svg>