<?xml version="1.0" encoding="utf-8"?>
<!-- Generator: Adobe Illustrator 24.3.0, SVG Export Plug-In . SVG Version: 6.00 Build 0)  -->
<svg version="1.1" id="Layer_1" xmlns="http://www.w3.org/2000/svg" xmlns:xlink="http://www.w3.org/1999/xlink" x="0px" y="0px"
	 viewBox="0 0 1000 500" style="enable-background:new 0 0 1000 500;" xml:space="preserve">
<style type="text/css">
	.st0{fill:#E62B51;}
</style>
<g>
	<circle class="st0" cx="712.1" cy="48.9" r="23"/>
</g>
<g>
	<path d="M129,25.1l5.4,15.2h-1.4C120.2,27,102.6,19.5,84.2,19.5C66.8,18.8,49.7,25,36.9,37c-11.8,11-18.3,26.4-18,42.5
		c0.6,12.1,3.5,24.1,8.5,35.1c5.3,13.1,14.1,24.4,25.5,32.7c12.2,8.7,26.9,13.2,41.9,12.8c10.8,0,21.5-1.7,31.7-5.2
		c8.8-2.5,16.8-7.3,23.1-13.9h1.3l-10,15.4c-16.2,3.5-26.8,5.6-31.5,6.2c-6.5,0.8-13,1.1-19.5,1c-30,0-51.5-7-64.5-20.9
		c-13.1-13.3-20.5-31.3-20.4-50c0-13.3,3.5-26.3,9.9-37.8c6.7-12.1,16.7-22,28.8-28.7c13-7.1,27.7-10.7,42.5-10.5
		c7-0.1,14,0.6,20.8,2.2c5,1.2,9.9,2.7,14.7,4.5l6.4,2.5L129,25.1z"/>
</g>
<g>
	<path d="M164.8,19.5v-1.6h40.7c10.3,0,17.8,0,22.4,0.7c5,0.6,9.8,2.1,14.2,4.5c4.6,2.4,8.4,6,10.9,10.5c2.6,4.9,3.9,10.5,3.7,16.1
		c0,7.5-2.3,14.8-6.5,20.9c-4.8,7.1-11.2,12.9-18.6,17l10.2,15.6c2.1,3.8,8,12.4,17.5,25.5c5.8,9.3,13.3,17.5,22.1,24.1
		c4.6,2.7,9.7,4.2,15,4.3c5.9-0.3,11.7-2.3,16.6-5.6l0.6,2c-8.7,6.7-19.4,10.1-30.4,9.6c-7.8,0.1-15.4-2.5-21.4-7.6
		c-11.8-12.3-22.2-25.9-31.1-40.5c-0.1-0.1-0.1-0.3,0-0.4l-14.4-22.1l-13.1,0.1h-11.6v54.8c-0.2,3.3,0.4,6.5,1.7,9.5
		c1.2,1.9,4,2.8,8.5,2.8v1.5h-37.1v-1.5c4.6,0,7.5-1.1,8.5-2.9c1.4-3.4,2-7.1,1.7-10.7V32.3c0.1-3.1-0.4-6.2-1.4-9.2
		C172.8,20.6,169.8,19.5,164.8,19.5z M191.7,21.8v67.3h15c9.5,0.8,19-2.3,26.3-8.5c5.8-5.8,8.9-13.8,8.5-22
		c-0.1-9.1-3.1-17.8-8.5-25.1c-7.3-8.7-18.5-13.2-29.8-11.9L191.7,21.8z"/>
</g>
<g>
	<path d="M328.3,19.5v-1.6h90.2v19.7H417c-0.8-4.6-2.5-8.9-4.8-12.9c-3-1.7-6.4-2.4-9.9-2H355v64.8h43.8c2.9,0.3,5.8-0.1,8.5-1.2
		c1.1-0.8,1.8-2.2,1.8-3.6h1.5V96H409c-0.1-1.6-0.9-3-2.2-3.8c-2.2-0.8-4.4-1.1-6.7-0.9H355v44.3c-0.3,4.9,0.4,9.8,1.9,14.5
		c0.9,2.7,3.1,4.8,5.9,5.5c4,0.9,8.1,1.3,12.2,1.1h25.5c5.2,0.1,10.3-0.3,15.4-1.1c2.2-0.6,4.1-1.7,5.7-3.3
		c2.1-3.2,3.3-6.9,3.6-10.8h1.4v19.7h-98.2v-1.4c2.6,0,5.2-0.6,7.6-1.9c1.7-1.1,2.6-3.8,2.6-8.5V33.8c0.2-3.7-0.2-7.5-1.4-11.1
		C336.2,20.6,333.3,19.5,328.3,19.5z"/>
</g>
<g>
	<path d="M517.8,95.3h-42.5l-21.7,54.2c-1.1,2.3-1.8,4.7-2.2,7.2c0,2.1,1.5,3.1,4.8,3.1v1.5h-21v-1.5c2.5,0.1,5-0.6,7.1-2
		c3-3,5.2-6.7,6.5-10.7l52-131.4h2.6l51,126.7c1,3.2,2.3,6.2,3.9,9.2c1.8,5.1,6.7,8.5,12.1,8.5v1.5H537v-1.8c3,0,4.5-1.2,4.5-3.6
		c-0.3-2.7-1-5.4-2.2-7.8c-0.3-0.4-0.6-0.8-0.7-1.3c0-0.3,0-0.6,0-0.9L517.8,95.3z M477.1,91.3H516l-19.4-48.9L477.1,91.3z"/>
</g>
<g>
	<path d="M680.1,12.9l-6.9,17h-1.4c0.2-1.4,0.2-2.8,0-4.2c0.1-1-0.2-1.9-0.9-2.6c-1.7-0.5-3.4-0.7-5.1-0.6h-37.4v122.7
		c-0.3,3.5,0.1,6.9,0.9,10.3c0.6,1.6,1.8,2.8,3.3,3.5c2.2,0.5,4.5,0.8,6.8,0.7v1.5h-38.9v-1.4c3.3,0.2,6.6-0.8,9.2-2.8
		c1.5-3.1,2.1-6.5,1.6-9.9V22.6h-35.6c-2.4-0.1-4.8,0.1-7.1,0.6c-1.1,0.4-1.6,1.4-1.6,3.1c0.1,1.3,0.3,2.6,0.8,3.9h-1.4l-6.8-17h1.4
		c0.6,1.8,1.8,3.2,3.4,4.3c2.4,0.7,4.9,0.9,7.4,0.8h95.1c2.9,0.2,5.7-0.1,8.5-0.8c1.9-0.7,3.3-2.3,3.7-4.3L680.1,12.9z"/>
</g>
<g>
	<path d="M812.9,163.5h-1.9l-51-126.3c-1.6-5.8-4.5-11.1-8.5-15.6c-2.3-1.5-5-2.3-7.7-2.1v-1.6H777v1.6c-3,0-4.4,0.9-4.4,3.4
		c0,1,0.2,2.1,0.6,3.1l44.6,110.5L861.8,26c0.5-1.1,0.8-2.3,0.9-3.6c0-2.2-1.6-3.2-5-3v-1.5h21.5v1.6c-1.6,0-3.1,0.2-4.7,0.6
		c-1.7,0-3.4,2.1-5.1,5c-1.7,2.9-2.7,4.5-2.7,4.7L812.9,163.5z"/>
</g>
<g>
	<path d="M893.5,19.5v-1.6h90.1v19.7h-1.4c-0.9-4.6-2.6-9-5.2-12.9c-1.3-1.4-4.6-2-9.8-2h-47.3v64.8h43.9c2.9,0.3,5.8-0.1,8.5-1.2
		c1.1-0.9,1.8-2.2,1.8-3.6h1.4V96h-1.4c-0.1-1.6-1-3-2.3-3.8c-2.1-0.8-4.4-1.1-6.6-0.9h-45.1v44.3c-0.3,4.9,0.4,9.8,1.8,14.5
		c0.9,2.7,3.2,4.8,6,5.5c4,0.9,8.1,1.3,12.2,1.1h25.5c5.2,0.2,10.3-0.1,15.5-0.8c2.2-0.6,4.1-1.7,5.7-3.3c2.1-3.2,3.3-6.9,3.6-10.8
		h1.4v19.7h-98.2v-1.7c2.6,0,5.2-0.6,7.6-1.9c1.7-1.1,2.6-3.8,2.6-8.5V33.8c0.2-3.7-0.2-7.5-1.4-11.1
		C901.3,20.6,898.4,19.5,893.5,19.5z"/>
</g>
<g>
	<path d="M84.7,201c18.2-0.7,36,5.9,49.3,18.4c12.6,11.8,19.6,28.5,19.2,45.8c0.6,22-7.4,43.3-22.2,59.5
		c-15.2,16.2-36.7,25-58.9,24.1c-18.3,0.6-36-6.4-48.8-19.5c-12.3-12.3-19.1-29-19-46.3c0.2-13.1,3.3-26,9.2-37.7
		c6-12.9,15.6-23.9,27.5-31.6C54,205.2,69.2,200.8,84.7,201z M84.2,341.2c10.3-0.1,20.3-2.8,29.2-7.9c9.4-5.1,17.2-12.6,22.6-21.9
		c5.4-8.6,8.4-18.5,8.5-28.7c0.1-13.4-3.8-26.6-11.1-37.8c-7.3-11.2-17.2-20.4-29-26.7c-10-5.9-21.2-9.2-32.8-9.6
		c-14.5,0.1-28.4,5.9-38.7,16.1c-11.2,10.2-17.4,24.7-17,39.9c-0.2,19.9,7.5,39.2,21.3,53.6C48.9,332.3,66,340.7,84.2,341.2z"/>
</g>
<g>
	<path d="M177.8,204.7v-1.5h40.6c10.4,0,17.8,0,22.4,0.7c5,0.6,9.7,2.2,14.1,4.6c4.6,2.3,8.4,5.9,11,10.4c2.6,5,3.9,10.5,3.7,16.2
		c-0.1,7.5-2.5,14.7-6.9,20.8c-4.7,7.1-11.1,12.9-18.5,17l10,15.2c2.2,3.9,8.1,12.5,17.6,25.5c5.8,9.3,13.3,17.5,22,24.1
		c4.6,2.7,9.8,4.2,15.1,4.3c6.1-0.3,11.9-2.3,17-5.6l0.5,2c-8.6,6.7-19.4,10-30.3,9.5c-7.8,0.2-15.4-2.4-21.4-7.3
		c-12-12.3-22.6-25.9-31.6-40.5l0,0l-14.5-22.5H216h-11.7v54.8c-0.3,3.3,0.3,6.5,1.7,9.5c1.2,1.9,4,2.8,8.5,2.8v1.4h-36.7v-1
		c4.6,0,7.5-1.1,8.5-2.9c1.4-3.4,2-7.1,1.7-10.7V217.6c0-3.1-0.6-6.3-1.7-9.2C185.3,206,182.4,204.7,177.8,204.7z M204.6,207v67.6
		h15c9.5,0.7,18.9-2.3,26.2-8.5c5.8-5.8,8.9-13.8,8.5-22c0-9.2-3-18.1-8.5-25.5c-7.3-8.7-18.5-13.1-29.8-11.8L204.6,207z"/>
</g>
<g>
	<path d="M382.4,203.2v1.5c-2.1-0.2-4.3,0.1-6.3,0.9c-2.3,0.8-3.7,1.9-4.1,3.4c-0.6,3.5-0.8,7.1-0.7,10.6v110
		c-0.2,3.7,0.1,7.4,0.8,11c0.6,1.4,1.5,2.5,2.8,3.3c2.4,1,4.9,1.5,7.5,1.3v1.4h-38.3v-1.4c4.8,0,7.7-0.9,8.5-2.7
		c1.6-4,2.2-8.4,1.8-12.7V220.9c0.4-4.6-0.3-9.2-2-13.4c-1.4-2.1-4.3-3-8.5-2.7v-1.5H382.4z"/>
</g>
<g>
	<path d="M485.8,201c18.1-0.7,35.8,5.9,49.1,18.4c12.7,11.8,19.9,28.5,19.6,45.8c0.6,22-7.4,43.3-22.2,59.5
		c-15.2,16.2-36.7,25-58.9,24.1c-18.3,0.7-36.1-6.4-49-19.5c-12.2-12.3-19-29-18.8-46.3c0.2-13.1,3.3-26,9.1-37.7
		c12.9-27.4,40.8-44.6,71.2-43.9V201z M485.3,341.2c10.2-0.1,20.3-2.8,29.2-7.9c9.4-5.1,17.3-12.6,22.7-21.9
		c5.4-8.6,8.4-18.5,8.5-28.7c0.2-13.4-3.7-26.6-11.1-37.8c-7.2-11.2-17.2-20.4-28.9-26.7c-10-5.9-21.3-9.2-32.9-9.6
		c-14.5,0.1-28.4,5.9-38.7,16.1c-11.2,10.2-17.4,24.7-17,39.9c-0.2,19.9,7.4,39.1,21.2,53.6C449.8,332.3,467,340.7,485.3,341.2z"/>
</g>
<g>
	<path d="M699.6,84.8h27.7v1.4c-3.1-0.2-6.1,0.8-8.5,2.6c-2,3.1-2.8,6.9-2.4,10.5v248.9L598.4,226.5v106.1c-0.1,2.5,0.2,5,0.8,7.5
		c0.3,1.3,1.1,2.5,2.2,3.3c2.3,0.9,4.8,1.5,7.3,1.7v1.4h-27.5v-1.4c4.9,0,8-0.9,9.2-2.6c1.6-4,2.2-8.2,1.8-12.5v-97
		c0.3-7.1-1-14.2-3.6-20.8c-2.3-5.4-7.8-7.9-16.4-7.5v-1.5h27l110.5,114.5V98c0-5.4-0.9-8.5-2.9-9.9c-2.3-1.3-4.9-1.9-7.5-1.8
		L699.6,84.8z"/>
</g>
<g>
	<path class="st0" d="M32.9,487.8c-6.7-2.3-11.8-5.4-15.5-9.2l4.1-8c3.5,3.5,8.3,6.4,14.1,8.6c5.9,2.2,11.9,3.3,18.2,3.3
		c8.8,0,15.3-1.6,19.7-4.8c4.4-3.2,6.6-7.4,6.6-12.5c0-3.9-1.2-7-3.6-9.4c-2.4-2.3-5.3-4.1-8.7-5.4c-3.5-1.3-8.3-2.6-14.4-4.1
		c-7.4-1.9-13.3-3.7-17.6-5.4c-4.4-1.7-8.1-4.4-11.3-7.9c-3.1-3.5-4.7-8.4-4.7-14.4c0-4.9,1.3-9.4,3.9-13.5c2.6-4.1,6.6-7.3,12-9.7
		c5.4-2.4,12.1-3.6,20.2-3.6c5.6,0,11.1,0.8,16.4,2.3c5.4,1.5,10,3.7,13.9,6.4l-3.5,8.3c-4.1-2.7-8.5-4.7-13.2-6.1
		c-4.7-1.4-9.2-2-13.7-2c-8.6,0-15,1.7-19.4,5c-4.3,3.3-6.5,7.6-6.5,12.8c0,3.9,1.2,7.1,3.6,9.4s5.4,4.2,9,5.5
		c3.6,1.3,8.4,2.6,14.5,4.1c7.2,1.8,13,3.5,17.4,5.2c4.4,1.7,8.2,4.3,11.3,7.8c3.1,3.5,4.6,8.2,4.6,14.2c0,4.9-1.3,9.4-4,13.5
		c-2.7,4.1-6.7,7.3-12.2,9.7c-5.5,2.4-12.3,3.6-20.3,3.6C46.6,491.3,39.6,490.1,32.9,487.8z"/>
	<path class="st0" d="M218.9,401.4h-34.4v-9h79.2v9h-34.4v89h-10.4V401.4z"/>
	<path class="st0" d="M376.4,480.4c-7.1-7.3-10.6-17.9-10.6-31.8v-56.1h10.4v55.7c0,11.4,2.6,19.9,7.7,25.5
		c5.1,5.6,12.5,8.4,22.3,8.4c9.8,0,17.3-2.8,22.4-8.4c5.1-5.6,7.7-14.1,7.7-25.5v-55.7h10.1v56.1c0,13.9-3.5,24.5-10.6,31.8
		c-7,7.3-16.9,10.9-29.6,10.9C393.4,491.3,383.5,487.6,376.4,480.4z"/>
	<path class="st0" d="M565.8,392.5h39.9c10.4,0,19.5,2.1,27.4,6.2c7.9,4.2,14.1,9.9,18.5,17.4c4.4,7.4,6.6,15.9,6.6,25.4
		c0,9.5-2.2,18-6.6,25.4c-4.4,7.4-10.5,13.2-18.5,17.4c-7.9,4.2-17.1,6.2-27.4,6.2h-39.9V392.5z M605.1,481.5
		c8.6,0,16.1-1.7,22.5-5.1c6.4-3.4,11.4-8.1,15-14.1c3.5-6,5.3-12.9,5.3-20.8c0-7.8-1.8-14.8-5.3-20.8c-3.5-6-8.5-10.7-15-14.1
		c-6.4-3.4-14-5.1-22.5-5.1h-29v80.1H605.1z"/>
	<path class="st0" d="M769.7,392.5h10.4v98h-10.4V392.5z"/>
	<path class="st0" d="M916.7,484.8c-7.9-4.3-14-10.3-18.5-17.8c-4.4-7.6-6.6-16-6.6-25.5c0-9.4,2.2-17.9,6.6-25.5
		c4.4-7.6,10.6-13.5,18.5-17.8c7.9-4.3,16.7-6.5,26.4-6.5c9.7,0,18.5,2.1,26.2,6.4c7.8,4.3,13.9,10.2,18.4,17.8
		c4.5,7.6,6.7,16.1,6.7,25.5c0,9.4-2.2,17.9-6.7,25.5c-4.5,7.6-10.6,13.6-18.4,17.8c-7.8,4.3-16.5,6.4-26.2,6.4
		C933.4,491.3,924.6,489.1,916.7,484.8z M964.1,476.8c6.3-3.5,11.1-8.4,14.7-14.6c3.5-6.2,5.3-13.1,5.3-20.8
		c0-7.6-1.8-14.6-5.3-20.8c-3.5-6.2-8.4-11.1-14.7-14.6c-6.3-3.5-13.3-5.2-21-5.2c-7.7,0-14.8,1.8-21.1,5.2
		c-6.3,3.5-11.2,8.4-14.8,14.6c-3.6,6.2-5.4,13.1-5.4,20.8c0,7.7,1.8,14.6,5.4,20.8c3.6,6.2,8.5,11.1,14.8,14.6
		c6.3,3.5,13.3,5.2,21.1,5.2C950.9,482,957.9,480.3,964.1,476.8z"/>
</g>
</svg>
